<svg viewBox="0 0 1024 1024" xmlns:xlink="http://www.w3.org/1999/xlink" xmlns="http://www.w3.org/2000/svg" id="图层_1"><defs><style>.cls-1,.cls-16,.cls-2,.cls-7{fill:none;}.cls-1{stroke:#00fff2;opacity:0.31;}.cls-1,.cls-15,.cls-18,.cls-2,.cls-3,.cls-4,.cls-5,.cls-7{stroke-miterlimit:10;}.cls-2{stroke:aqua;}.cls-15,.cls-18,.cls-3,.cls-4{stroke-width:0.5px;}.cls-3{fill:url(#未命名的渐变_131);stroke:url(#未命名的渐变_144);}.cls-4{fill:url(#未命名的渐变_169);stroke:url(#未命名的渐变_74);}.cls-5{fill:url(#未命名的渐变_136);stroke:url(#未命名的渐变_92);}.cls-15,.cls-6{opacity:0.82;}.cls-7{stroke:url(#未命名的渐变_347);}.cls-8{isolation:isolate;}.cls-9{fill:#858585;}.cls-10{fill:#949494;}.cls-11{fill:#999;}.cls-12{fill:#9e9e9e;}.cls-13{fill:#a3a3a3;}.cls-14{fill:#a8a8a8;}.cls-15{fill:url(#未命名的渐变_356);stroke:url(#未命名的渐变_389);}.cls-17{opacity:0.86;}.cls-18{fill:url(#未命名的渐变_368);stroke:url(#未命名的渐变_336);}.cls-19{opacity:0.78;}.cls-20{fill:url(#未命名的渐变_382);}</style><linearGradient gradientUnits="userSpaceOnUse" y2="742.83" x2="826.98" y1="742.83" x1="196.31" id="未命名的渐变_131"><stop stop-color="#041fb2" offset="0"></stop><stop stop-color="#0524b4" offset="0.07"></stop><stop stop-color="#0831b8" offset="0.15"></stop><stop stop-color="#0d47c0" offset="0.23"></stop><stop stop-color="#1367cb" offset="0.32"></stop><stop stop-color="#1c8fda" offset="0.41"></stop><stop stop-color="#26bfeb" offset="0.5"></stop><stop stop-color="#2ee2f7" offset="0.55"></stop><stop stop-color="#2ddef6" offset="0.61"></stop><stop stop-color="#2ad2f2" offset="0.68"></stop><stop stop-color="#26bdec" offset="0.74"></stop><stop stop-color="#1fa0e3" offset="0.8"></stop><stop stop-color="#177bd7" offset="0.86"></stop><stop stop-color="#0d4fca" offset="0.93"></stop><stop stop-color="#0426bd" offset="0.98"></stop></linearGradient><radialGradient gradientUnits="userSpaceOnUse" r="229.41" cy="742.96" cx="511.65" id="未命名的渐变_144"><stop stop-color="#95e2f7" offset="0"></stop><stop stop-color="#74d6ea" offset="0.25"></stop><stop stop-color="#21b7c8" offset="0.8"></stop><stop stop-color="#04adbd" offset="0.98"></stop></radialGradient><linearGradient gradientUnits="userSpaceOnUse" y2="517.1" x2="679.4" y1="851.61" x1="344.88" id="未命名的渐变_169"><stop stop-color="#04adbd" offset="0"></stop><stop stop-color="#049abd" offset="0.13"></stop><stop stop-color="#0447bd" offset="0.73"></stop><stop stop-color="#0426bd" offset="1"></stop></linearGradient><linearGradient gradientUnits="userSpaceOnUse" y2="516.92" x2="679.58" y1="851.79" x1="344.71" id="未命名的渐变_74"><stop stop-color="#4244cf" offset="0"></stop><stop stop-color="#3d50d1" offset="0.13"></stop><stop stop-color="#2f6fd5" offset="0.38"></stop><stop stop-color="#19a0dc" offset="0.69"></stop><stop stop-color="#00d7e3" offset="1"></stop></linearGradient><linearGradient gradientUnits="userSpaceOnUse" y2="647.45" x2="828.98" y1="647.45" x1="199.3" id="未命名的渐变_136"><stop stop-color="#2ee2f7" offset="0"></stop><stop stop-color="#0426bd" offset="0.98"></stop></linearGradient><linearGradient gradientUnits="userSpaceOnUse" y2="647.45" x2="829.48" y1="647.45" x1="198.8" id="未命名的渐变_92"><stop stop-color="#2ee2f7" offset="0"></stop><stop stop-color="#31ceef" offset="0.13"></stop><stop stop-color="#389adc" offset="0.41"></stop><stop stop-color="#4447bc" offset="0.8"></stop><stop stop-color="#4a1aab" offset="1"></stop></linearGradient><linearGradient gradientUnits="userSpaceOnUse" y2="647.45" x2="827.48" y1="647.45" x1="196.8" id="未命名的渐变_347"><stop stop-color="#0924ad" offset="0"></stop><stop stop-color="#00e1ed" offset="0.48"></stop><stop stop-color="#1fb6e9" offset="0.55"></stop><stop stop-color="#4d76e4" offset="0.67"></stop><stop stop-color="#7143e0" offset="0.78"></stop><stop stop-color="#8b1edd" offset="0.87"></stop><stop stop-color="#9b08db" offset="0.95"></stop><stop stop-color="#a100da" offset="1"></stop></linearGradient><linearGradient gradientUnits="userSpaceOnUse" gradientTransform="translate(-9.55 -6.46) rotate(-0.25)" y2="703.43" x2="632.74" y1="174.99" x1="632.74" id="未命名的渐变_356"><stop stop-color="#a100da" offset="0"></stop><stop stop-color="#8e00dc" offset="0.08"></stop><stop stop-color="#5c00e3" offset="0.24"></stop><stop stop-color="#0c00ed" offset="0.47"></stop><stop stop-color="#0b00ed" offset="0.47"></stop><stop stop-color="#0a0fd2" offset="0.65"></stop><stop stop-color="#091eb7" offset="0.87"></stop><stop stop-color="#0924ad" offset="1"></stop></linearGradient><linearGradient gradientUnits="userSpaceOnUse" gradientTransform="translate(-9.55 -6.46) rotate(-0.25)" y2="703.65" x2="632.81" y1="174.74" x1="632.81" id="未命名的渐变_389"><stop stop-color="#00e1ed" offset="0"></stop><stop stop-color="#00daeb" offset="0.01"></stop><stop stop-color="#039ad5" offset="0.08"></stop><stop stop-color="#0667c4" offset="0.14"></stop><stop stop-color="#0842b7" offset="0.19"></stop><stop stop-color="#092cb0" offset="0.23"></stop><stop stop-color="#0924ad" offset="0.26"></stop><stop stop-color="#00e1ed" offset="0.55"></stop><stop stop-color="#1fb6e9" offset="0.61"></stop><stop stop-color="#4d76e4" offset="0.72"></stop><stop stop-color="#7143e0" offset="0.81"></stop><stop stop-color="#8b1edd" offset="0.89"></stop><stop stop-color="#9b08db" offset="0.96"></stop><stop stop-color="#a100da" offset="1"></stop></linearGradient><linearGradient gradientUnits="userSpaceOnUse" gradientTransform="translate(-9.55 -6.46) rotate(-0.25)" y2="705.25" x2="502.11" y1="206.22" x1="502.11" id="未命名的渐变_368"><stop stop-color="#00fdf5" offset="0"></stop><stop stop-color="#00f1f3" offset="0.09"></stop><stop stop-color="#01d2ef" offset="0.25"></stop><stop stop-color="#03a0e8" offset="0.45"></stop><stop stop-color="#055ade" offset="0.71"></stop><stop stop-color="#0802d1" offset="1"></stop><stop stop-color="#0800d1" offset="1"></stop></linearGradient><linearGradient gradientUnits="userSpaceOnUse" gradientTransform="translate(-9.55 -6.46) rotate(-0.25)" y2="455.73" x2="716.18" y1="455.73" x1="288.04" id="未命名的渐变_336"><stop stop-color="#6adcf8" offset="0"></stop><stop stop-color="#4da8e2" offset="0.13"></stop><stop stop-color="#3177cc" offset="0.26"></stop><stop stop-color="#1d53bd" offset="0.38"></stop><stop stop-color="#103db3" offset="0.48"></stop><stop stop-color="#0c35b0" offset="0.54"></stop><stop stop-color="#0f39b1" offset="0.61"></stop><stop stop-color="#1745b5" offset="0.67"></stop><stop stop-color="#2559ba" offset="0.74"></stop><stop stop-color="#3976c3" offset="0.81"></stop><stop stop-color="#529acd" offset="0.87"></stop><stop stop-color="#70c6da" offset="0.94"></stop><stop stop-color="#92f7e8" offset="1"></stop></linearGradient><linearGradient gradientUnits="userSpaceOnUse" gradientTransform="translate(-9.55 -6.46) rotate(-0.25)" y2="544.36" x2="474.11" y1="687.24" x1="474.11" id="未命名的渐变_382"><stop stop-color="#d3e7fb" offset="0"></stop><stop stop-color="#4e82f9" offset="1"></stop></linearGradient></defs><title>首页</title><path d="M911.72,730.6,713,844.15c-22.13,12.65-78.73,17.43-126.42,10.68L158.53,794.22c-47.69-6.75-68.37-22.47-46.24-35.12L311,645.55c22.13-12.65,78.7-17.44,126.39-10.68l428.09,60.6C913.13,702.22,933.85,718,911.72,730.6Z" class="cls-1"></path><path d="M754.59,820.4,713,844.15c-22.13,12.65-78.73,17.43-126.42,10.68l-14.15-2" class="cls-2"></path><path d="M813.29,688.09l52.15,7.38c47.69,6.75,68.41,22.48,46.28,35.13l-31,17.71" class="cls-2"></path><path d="M210,801.51l-51.51-7.29c-47.69-6.75-68.37-22.47-46.24-35.12l74.26-42.44" class="cls-2"></path><path d="M827,668.05a5.93,5.93,0,0,1-.29,1.35,7.72,7.72,0,0,1-.56,1.26,9.48,9.48,0,0,1-.82,1.2,11.18,11.18,0,0,1-1.06,1.15,16.22,16.22,0,0,1-1.29,1.12,18,18,0,0,1-1.57,1.11c-.54.36-1.13.71-1.76,1.06L661.33,764l-.09.06c-.7.38-1.43.75-2.21,1.11s-1.69.77-2.6,1.13-2,.78-3.14,1.16c-1.26.42-2.57.83-3.94,1.21-1.68.48-3.45.93-5.29,1.34-2.69.61-5.55,1.16-8.53,1.64a204.57,204.57,0,0,1-22,2.23c-2.22.11-4.48.19-6.75.24q-2.57.06-5.16.06l-4.57,0c-1.43,0-2.87-.06-4.3-.1l-4.22-.17c-1.39-.07-2.79-.15-4.18-.24s-2.76-.19-4.14-.31-2.74-.23-4.1-.37-2.73-.28-4.08-.44-2.73-.33-4.08-.52-2.74-.38-4.09-.6h0l-325.4-51c-1.41-.23-2.8-.46-4.15-.7s-2.85-.53-4.21-.81-2.95-.63-4.36-1c-1.62-.38-3.17-.78-4.66-1.19q-2.81-.78-5.31-1.62c-12-4-18.51-9.06-18.4-14.08l-1,43.79c-.12,5,6.43,10.06,18.39,14.08q2.5.84,5.31,1.62c1.49.41,3,.81,4.67,1.19q2.1.49,4.35,1c1.37.28,2.77.55,4.22.81s2.73.48,4.14.7l325.4,51h0c1.36.21,2.72.41,4.09.59s2.71.36,4.08.52,2.72.31,4.08.44,2.73.26,4.1.37,2.76.22,4.15.31l4.17.24c1.41.07,2.82.12,4.22.17s2.87.08,4.3.1,3,0,4.57,0q2.59,0,5.16-.06,3.42-.08,6.75-.24a204.57,204.57,0,0,0,22-2.23q4.49-.72,8.54-1.64c1.84-.41,3.6-.86,5.28-1.33,1.37-.39,2.69-.8,3.94-1.22s2.14-.76,3.14-1.16,1.78-.74,2.61-1.12,1.51-.74,2.2-1.12l.1,0,158.27-87.74c.63-.35,1.22-.7,1.76-1.05s1.09-.74,1.57-1.12a14.8,14.8,0,0,0,1.3-1.12,12.29,12.29,0,0,0,1-1.15,8.82,8.82,0,0,0,.82-1.2,7,7,0,0,0,.57-1.26,5.9,5.9,0,0,0,.28-1.35c0-.13,0-.26,0-.38l1-43.8C827,667.79,827,667.92,827,668.05Z" class="cls-3"></path><path d="M819.61,676.3,661.33,764c-17.63,9.78-61.29,13.08-97.54,7.4l-325.4-51c-36.25-5.69-51.35-18.21-33.72-28l158.27-87.73c17.64-9.78,61.32-13.09,97.57-7.41l325.39,51C822.15,654,837.24,666.53,819.61,676.3Z" class="cls-4"></path><path d="M821.61,639.39,663.33,727.13c-17.63,9.77-61.29,13.08-97.54,7.39l-325.4-51c-36.25-5.69-51.35-18.21-33.72-28l158.27-87.74c17.64-9.77,61.32-13.09,97.57-7.4l325.39,51C824.15,617.09,839.24,629.62,821.61,639.39Z" class="cls-5"></path><g class="cls-6"><path d="M819.61,639.39,661.33,727.13c-17.63,9.77-61.29,13.08-97.54,7.39l-325.4-51c-36.25-5.69-51.35-18.21-33.72-28l158.27-87.74c17.64-9.77,61.32-13.09,97.57-7.4l325.39,51C822.15,617.09,837.24,629.62,819.61,639.39Z" class="cls-7"></path></g><g class="cls-8"><path d="M659.3,694.08l57.31-31.5c5-2.75,8.3-8.35,8.26-15.24l-57.31,31.5c0,6.89-3.26,12.49-8.26,15.24" class="cls-9"></path></g><g class="cls-8"><path d="M505.8,205.21l57.31-31.5c-.2-.24-.41-.49-.62-.72l-57.31,31.5c.21.23.42.47.62.72" class="cls-10"></path><path d="M505.18,204.49,562.49,173a19.75,19.75,0,0,0-1.83-1.83l-57.31,31.5a19.75,19.75,0,0,1,1.83,1.83" class="cls-11"></path><path d="M503.35,202.66l57.31-31.5a19.93,19.93,0,0,0-2.15-1.69L501.2,201a21.37,21.37,0,0,1,2.15,1.7" class="cls-12"></path><path d="M501.2,201l57.31-31.49a19.65,19.65,0,0,0-2.9-1.66l-57.31,31.5a20.51,20.51,0,0,1,2.9,1.65" class="cls-13"></path><path d="M498.3,199.31l57.31-31.5a18.36,18.36,0,0,0-5.28-1.57L493,197.74a18.36,18.36,0,0,1,5.28,1.57" class="cls-14"></path></g><path d="M764.36,420.41a23.07,23.07,0,0,0-1.35-3A26.12,26.12,0,0,0,761.5,415c-.34-.48-.71-1-1.1-1.44L563.11,173.71a20.3,20.3,0,0,0-12.77-7.47,16.4,16.4,0,0,0-2.88-.11c-.29,0-.58.05-.87.08a14.57,14.57,0,0,0-2,.31,4.5,4.5,0,0,0-.51.08c-.15,0-.29.12-.44.16a16.24,16.24,0,0,0-1.76.66c-.2.09-.41.13-.61.23s-.36.18-.53.28l-57.31,31.5c.36-.2.76-.34,1.14-.51a15.5,15.5,0,0,1,1.76-.66c.32-.09.63-.17.95-.24a16.34,16.34,0,0,1,2-.32l.87-.08a17.44,17.44,0,0,1,2.88.12,20.3,20.3,0,0,1,12.77,7.47L703.09,445.08c.39.47.76,1,1.1,1.44a24.85,24.85,0,0,1,1.51,2.42c.34.64.6,1.3.88,1.95L666.29,473l1.27,205.81c0,6.89-3.26,12.49-8.26,15.24l57.31-31.5c5-2.75,8.3-8.35,8.26-15.24l-1.15-185.61,33.72-18.53C764.58,439.28,767.74,429.56,764.36,420.41Z" class="cls-15"></path><path d="M700.13,474.7l57.31-31.5c9-4.93,11.66-19,3-29.62l-57.31,31.5C711.79,455.67,709.11,469.76,700.13,474.7Z" class="cls-16"></path><g class="cls-17"><path d="M493,197.74a15.13,15.13,0,0,0-12.71,4L285.66,388.26c-11.16,10.69-3,32.55,13,34.73l24.24,3.3,1.28,205.8c.06,10.7,8.16,20.47,18.07,21.82l83.35,11.34,140.8,19.17,83.35,11.34c9.92,1.35,17.91-6.22,17.84-16.92L666.29,473l24.24,3.3c16,2.17,23.87-17.5,12.56-31.25L505.8,205.21A20.3,20.3,0,0,0,493,197.74Z" class="cls-18"></path></g><g class="cls-19"><path d="M433.13,536.14c-9.88-1.34-17.91,6.27-17.84,16.93L416,664.44l103.25,14-.69-111.37c-.07-10.65-8.2-20.47-18.06-21.81Z" class="cls-20"></path></g></svg>